<?xml version="1.0" encoding="utf-8"?>
<!-- Generator: Adobe Illustrator 21.0.0, SVG Export Plug-In . SVG Version: 6.00 Build 0)  -->
<svg version="1.1" id="noti-logo" xmlns="http://www.w3.org/2000/svg" xmlns:xlink="http://www.w3.org/1999/xlink" x="0px" y="0px"
	 viewBox="0 0 479 109" enable-background="new 0 0 479 109" xml:space="preserve">
<g id="test">
	<path id="n" fill="#2E373C" d="M211.7,107.5l-59.9-80.2c-1.2-1.6-3.8-0.8-3.8,1.3v77.7c0,1.2-0.9,2.1-2.1,2.1h-8
		c-1.2,0-2.1-0.9-2.1-2.1V3.1c0-1.2,0.9-2.1,2.1-2.1h9.5c0.7,0,1.3,0.3,1.7,0.9L209,82.2c1.2,1.6,3.8,0.8,3.8-1.3V3.1
		c0-1.2,0.9-2.1,2.1-2.1h7.9c1.2,0,2.1,0.9,2.1,2.1v103.1c0,1.2-0.9,2.1-2.1,2.1h-9.4C212.7,108.3,212.1,108,211.7,107.5z"/>
	<path id="o" fill="#44C593" d="M359.8,54.7c0,30.2-24.8,54.3-56.1,54.3c-31.4,0-56.3-24.1-56.3-54.3c0-30.4,24.8-54,56.3-54
		C335,0.7,359.8,24.5,359.8,54.7z M259.9,54.7c0,23.6,19.9,42.5,43.8,42.5s43.5-18.9,43.5-42.5s-19.6-42.3-43.5-42.3
		S259.9,31,259.9,54.7z"/>
	<path id="t" fill="#F4D157" d="M413.5,15v91c0,1.2-1,2.2-2.2,2.2h-7.8c-1.2,0-2.2-1-2.2-2.2V15c0-1.2-1-2.2-2.2-2.2h-30.5
		c-1.2,0-2.2-1-2.2-2.2V3.2c0-1.2,1-2.2,2.2-2.2h77.8c1.2,0,2.2,1,2.2,2.2v7.3c0,1.2-1,2.2-2.2,2.2h-30.6
		C414.5,12.8,413.5,13.8,413.5,15z"/>
	<path id="i" fill="#F55463" d="M466.4,105.7V3.6c0-1.5,1.2-2.6,2.6-2.6h7c1.5,0,2.6,1.2,2.6,2.6v102.1c0,1.5-1.2,2.6-2.6,2.6h-7
		C467.5,108.3,466.4,107.1,466.4,105.7z"/>
</g>
<path id="shape_3_" fill="#2E373C" d="M3.5,1h108c1.4,0,2.5,1.1,2.5,2.5v7c0,1.4-1.1,2.5-2.5,2.5H3.5C2.1,13,1,11.9,1,10.5v-7
	C1,2.1,2.1,1,3.5,1z"/>
<path id="shape_2_" fill="#F55463" d="M88.5,96h23c1.4,0,2.5,1.1,2.5,2.5v7c0,1.4-1.1,2.5-2.5,2.5h-23c-1.4,0-2.5-1.1-2.5-2.5v-7
	C86,97.1,87.1,96,88.5,96z"/>
<path id="shape_1_" fill="#44C593" d="M60.5,33.3h51c1.4,0,2.5,1.1,2.5,2.5v7c0,1.4-1.1,2.5-2.5,2.5h-51c-1.4,0-2.5-1.1-2.5-2.5v-7
	C58,34.5,59.1,33.3,60.5,33.3z"/>
<path id="shape" fill="#F4D157" d="M33.5,64.7h78c1.4,0,2.5,1.1,2.5,2.5v7c0,1.4-1.1,2.5-2.5,2.5h-78c-1.4,0-2.5-1.1-2.5-2.5v-7
	C31,65.8,32.1,64.7,33.5,64.7z"/>
</svg>
